<svg xmlns="http://www.w3.org/2000/svg" viewBox="0 0 444.43 511.81"><defs><style>.cls-1{fill:#fff;}</style></defs><title>Ресурс 3</title><g id="Слой_2" data-name="Слой 2"><g id="Layer_1" data-name="Layer 1"><path class="cls-1" d="M428.43,511.81H16A16,16,0,0,1,.05,494.61l26.7-352a16,16,0,0,1,16-14.8H401.39a16,16,0,0,1,15.95,14.78l26.48,348.83a16,16,0,0,1-15.39,20.39Zm-395.18-32h377.6l-24.29-320h-329Z"/><path class="cls-1" d="M334.05,207.81a16,16,0,0,1-16-16V128a96,96,0,1,0-192,0v63.78a16,16,0,0,1-32,0V128c0-70.59,57.42-128,128-128s128,57.44,128,128v63.78A16,16,0,0,1,334.05,207.81Z"/></g></g></svg>