<svg xmlns="http://www.w3.org/2000/svg" viewBox="0 0 346.08 389.12"><defs><style>.cls-1{fill:#b3b3b3;}</style></defs><title>Ресурс 1</title><g id="Слой_2" data-name="Слой 2"><g id="Слой_1-2" data-name="Слой 1"><path class="cls-1" d="M335.28,56h-81V42.8A42.85,42.85,0,0,0,211.52,0h-77a42.85,42.85,0,0,0-42.8,42.8V56h-81a10.8,10.8,0,0,0,0,21.6H30.32V331.36a57.84,57.84,0,0,0,57.76,57.76H258a57.84,57.84,0,0,0,57.76-57.76V77.6h19.52a10.8,10.8,0,1,0,0-21.6ZM113.36,42.8a21.24,21.24,0,0,1,21.2-21.2h77a21.24,21.24,0,0,1,21.2,21.2V56H113.36Zm180.8,288.56A36.23,36.23,0,0,1,258,367.52H88.08a36.23,36.23,0,0,1-36.16-36.16V77.6H294.24V331.36Z"/><path class="cls-1" d="M173,328.8a10.76,10.76,0,0,0,10.8-10.8V127.12a10.8,10.8,0,0,0-21.6,0v190.8A10.82,10.82,0,0,0,173,328.8Z"/><path class="cls-1" d="M102.56,316.88a10.76,10.76,0,0,0,10.8-10.8V139a10.8,10.8,0,0,0-21.6,0V306.08a10.81,10.81,0,0,0,10.8,10.8Z"/><path class="cls-1" d="M243.52,316.88a10.76,10.76,0,0,0,10.8-10.8V139a10.8,10.8,0,1,0-21.6,0V306.08a10.76,10.76,0,0,0,10.8,10.8Z"/></g></g></svg>