<svg xmlns="http://www.w3.org/2000/svg" xmlns:xlink="http://www.w3.org/1999/xlink" width="0" height="0" style="position:absolute">

		<symbol id="icon-arrow-left" viewBox="0 0 34.8 60">
			<defs><path id="a" d="M0 0h34.8v60H0z"></path></defs><path class="st0" d="M2 32.8c-.8-.8-1.2-1.9-1.2-3s.4-2.1 1.2-3L27.7 1.2c1.6-1.6 4.3-1.6 5.9 0 1.6 1.6 1.6 4.3 0 5.9L10.9 29.9l22.7 22.7c1.6 1.6 1.6 4.3 0 5.9-1.6 1.6-4.3 1.6-5.9 0L2 32.8zm0 0"></path>
		</symbol>

		<symbol id="icon-arrow-right" viewBox="0 0 34.8 60">
			<defs><path id="a" d="M0 0h34.8v60H0z"></path></defs><path class="st0" d="M32.8 32.8L7.1 58.5c-1.6 1.6-4.3 1.6-5.9 0-1.6-1.6-1.6-4.3 0-5.9l22.7-22.7L1.2 7.1c-1.6-1.6-1.6-4.3 0-5.9 1.6-1.6 4.3-1.6 5.9 0l25.7 25.7c.8.8 1.2 1.9 1.2 3 0 1-.4 2.1-1.2 2.9zm0 0"></path>
		</symbol>

		<symbol id="icon-main-arrow-left" viewBox="0 0 47.9 21.8">
			<defs><path id="a" d="M0 0h47.9v21.8H0z"></path></defs><path class="st0" d="M46.7 10.9H.4c-.2 0-.4-.2-.4-.4s.2-.4.4-.4h46.3c.2 0 .4.2.4.4s-.2.4-.4.4zm0 0"></path><path class="st0" d="M10.4 20.9c-.1 0-.2 0-.3-.1l-10-10c-.1-.1-.1-.2-.1-.4 0-.1 0-.2.1-.3l10-10c.2-.2.4-.2.6 0 .2.2.2.4 0 .6L1 10.4l9.7 9.7c.2.2.2.4 0 .6-.1.1-.2.2-.3.2zm0 0"></path>
		</symbol>

		<symbol id="icon-main-arrow-right" viewBox="0 0 47.9 21.8">
			<defs><path id="a" d="M0 0h47.9v21.8H0z"></path></defs><path class="st0" d="M1.2 10.9c-.2 0-.4-.2-.4-.4s.2-.4.4-.4h46.3c.2 0 .4.2.4.4s-.2.4-.4.4H1.2zm0 0"></path><path class="st0" d="M37.5 20.9c-.1 0-.2 0-.3-.1-.2-.2-.2-.4 0-.6l9.7-9.7L37.2.8c-.2-.2-.2-.4 0-.6.2-.2.4-.2.6 0l10 10c.1.1.1.2.1.3 0 .1 0 .2-.1.3l-10 10c-.1 0-.2.1-.3.1zm0 0"></path>
		</symbol>

		<symbol id="icon-menu" viewBox="0 0 42.4 27.2">
			<path d="M1.6 3.2h39.2c.9 0 1.6-.7 1.6-1.6 0-.9-.7-1.6-1.6-1.6H1.6C.7 0 0 .7 0 1.6c0 .9.7 1.6 1.6 1.6zm0 12h39.2c.9 0 1.6-.7 1.6-1.6 0-.9-.7-1.6-1.6-1.6H1.6c-.9 0-1.6.7-1.6 1.6 0 .9.7 1.6 1.6 1.6zm0 12h39.2c.9 0 1.6-.7 1.6-1.6 0-.9-.7-1.6-1.6-1.6H1.6c-.9 0-1.6.7-1.6 1.6 0 .9.7 1.6 1.6 1.6zm0 0"></path>
		</symbol>

		<symbol id="icon-cancel" viewBox="0 0 51.3 50.9">
			<defs><path id="a" d="M0 0h51.8v51.8H0z"></path></defs><path class="st0" d="M23.2 25.5L.5 48.1c-.6.6-.6 1.7 0 2.3.3.3.7.5 1.1.5.4 0 .8-.2 1.1-.5l22.8-22.8 22.8 22.8c.3.3.7.5 1.1.5.4 0 .8-.2 1.1-.5.6-.6.6-1.6 0-2.3L28.1 25.5 50.7 2.8c.6-.6.6-1.6 0-2.3-.6-.6-1.6-.6-2.3 0L25.6 23.4 2.8.5C2.2-.1 1.2-.1.5.5s-.6 1.6 0 2.3l22.7 22.7zm0 0"></path>
		</symbol>

		<symbol id="icon-package" viewBox="0 0 387.5 388.3">
			<path d="M384.2 63.2c-.5-.2-188-62.6-188-62.6-1.7-.8-3.3-.8-5 0L5.8 61.6c-4.7 2-5.8 6-5.8 8.3v250.6c0 4.2 2.5 7.4 5.8 8.2L189 387.3c2.8 1 5.8 1.4 9.7 0l183.1-58.6c3.3-1.7 5.8-5 5.8-8.2V69.9c-.1-2.5-.9-5-3.4-6.7zM193.8 17.9L352.9 69l-60.1 19.3L136 36.7l57.8-18.8zm-8.3 350.4l-169-53.6V81.6l169 54.1v232.6zm8.3-248.2L34.6 69.9l75-24.5L265.8 97l-72 23.1zm8.2 248.2V135l84.1-26.6v25.8l16.5-7v-24L371 81.6v232.3h.1L202 368.3zm0 0"></path>
		</symbol>
	
		<symbol id="icon-speech-bubble" viewBox="0 0 431.3 359.4">
			<path d="M62.9 359.4c-1.2 0-2.3-.2-3.4-.7-3.4-1.4-5.5-4.7-5.5-8.3v-62.9H27c-14.9 0-27-12.1-27-27V27C0 12.1 12.1 0 27 0h377.4c14.9 0 27 12.1 27 27v233.6c0 14.9-12.1 27-27 27H138.5l-69.2 69.2c-1.8 1.7-4.1 2.6-6.4 2.6zM27 18c-5 0-9 4-9 9v233.6c0 4.9 4 9 9 9h35.9c5 0 9 4 9 9v50.2l56.5-56.5c1.7-1.7 4-2.6 6.4-2.6h269.5c4.9 0 9-4 9-9V27c0-5-4-9-9-9H27zm0 0"></path><path d="M152.7 161.7c-9.9 0-18-8.1-18-18s8.1-18 18-18 18 8.1 18 18c0 10-8.1 18-18 18zm143.8 0c-9.9 0-18-8.1-18-18s8.1-18 18-18 18 8.1 18 18c0 10-8.1 18-18 18zm-71.9 0c-9.9 0-18-8.1-18-18s8.1-18 18-18 18 8.1 18 18c0 10-8.1 18-18 18zm0 0"></path>
		</symbol>
	
		<symbol id="icon-star" viewBox="0 0 44.7 42.6">
			<defs><path id="a" d="M0 0h44.9v43.9H0z"></path></defs><path class="st0" d="M44.7 16.2c-.1-.3-.3-.5-.6-.5l-14.5-2.1L23.1.4c-.2-.2-.4-.4-.8-.4-.3 0-.6.2-.7.4l-6.5 13.1L.7 15.7c-.3 0-.6.3-.6.5-.1.3 0 .6.2.8l10.5 10.2-2.6 14.5c-.1.3.1.6.3.8.2.2.6.2.8.1l12.9-6.8 12.9 6.8c.1.1.2.1.4.1s.3-.1.5-.2c.2-.2.4-.5.3-.8L34 27.2 44.5 17c.2-.2.3-.5.2-.8zm0 0"></path>
		</symbol>

		<symbol id="icon-checked" viewBox="0 0 21 16">
			<defs><path id="a" d="M0 0h21v16H0z"></path></defs><path class="st0" d="M.2 8.8c-.1-.2-.2-.4-.2-.6 0-.2.1-.4.2-.6l1.1-1.1c.3-.3.8-.3 1.1 0l.1.1L7 11.4c.2.2.4.2.6 0L18.2.2h.1c.3-.3.8-.3 1.1 0l1.1 1.1c.3.3.3.8 0 1.1L7.8 15.8c-.2.1-.4.2-.6.2-.2 0-.4-.1-.6-.2L.4 9l-.2-.2zm0 0"></path>
		</symbol>

</svg>
