<svg xmlns="http://www.w3.org/2000/svg" xmlns:xlink="http://www.w3.org/1999/xlink" width="0" height="0" style="position:absolute">

		<symbol id="icon-arrow-left" viewBox="0 0 34.8 60">
			<defs><path id="a" d="M0 0h34.8v60H0z"></path></defs><path class="st0" d="M2 32.8c-.8-.8-1.2-1.9-1.2-3s.4-2.1 1.2-3L27.7 1.2c1.6-1.6 4.3-1.6 5.9 0 1.6 1.6 1.6 4.3 0 5.9L10.9 29.9l22.7 22.7c1.6 1.6 1.6 4.3 0 5.9-1.6 1.6-4.3 1.6-5.9 0L2 32.8zm0 0"></path>
		</symbol>

		<symbol id="icon-arrow-right" viewBox="0 0 34.8 60">
			<defs><path id="a" d="M0 0h34.8v60H0z"></path></defs><path class="st0" d="M32.8 32.8L7.1 58.5c-1.6 1.6-4.3 1.6-5.9 0-1.6-1.6-1.6-4.3 0-5.9l22.7-22.7L1.2 7.1c-1.6-1.6-1.6-4.3 0-5.9 1.6-1.6 4.3-1.6 5.9 0l25.7 25.7c.8.8 1.2 1.9 1.2 3 0 1-.4 2.1-1.2 2.9zm0 0"></path>
		</symbol>

		<symbol id="icon-main-arrow-left" viewBox="0 0 47.9 21.8">
			<defs><path id="a" d="M0 0h47.9v21.8H0z"></path></defs><path class="st0" d="M46.7 10.9H.4c-.2 0-.4-.2-.4-.4s.2-.4.4-.4h46.3c.2 0 .4.2.4.4s-.2.4-.4.4zm0 0"></path><path class="st0" d="M10.4 20.9c-.1 0-.2 0-.3-.1l-10-10c-.1-.1-.1-.2-.1-.4 0-.1 0-.2.1-.3l10-10c.2-.2.4-.2.6 0 .2.2.2.4 0 .6L1 10.4l9.7 9.7c.2.2.2.4 0 .6-.1.1-.2.2-.3.2zm0 0"></path>
		</symbol>

		<symbol id="icon-main-arrow-right" viewBox="0 0 47.9 21.8">
			<defs><path id="a" d="M0 0h47.9v21.8H0z"></path></defs><path class="st0" d="M1.2 10.9c-.2 0-.4-.2-.4-.4s.2-.4.4-.4h46.3c.2 0 .4.2.4.4s-.2.4-.4.4H1.2zm0 0"></path><path class="st0" d="M37.5 20.9c-.1 0-.2 0-.3-.1-.2-.2-.2-.4 0-.6l9.7-9.7L37.2.8c-.2-.2-.2-.4 0-.6.2-.2.4-.2.6 0l10 10c.1.1.1.2.1.3 0 .1 0 .2-.1.3l-10 10c-.1 0-.2.1-.3.1zm0 0"></path>
		</symbol>

		<symbol id="icon-menu" viewBox="0 0 42.4 27.2">
			<path d="M1.6 3.2h39.2c.9 0 1.6-.7 1.6-1.6 0-.9-.7-1.6-1.6-1.6H1.6C.7 0 0 .7 0 1.6c0 .9.7 1.6 1.6 1.6zm0 12h39.2c.9 0 1.6-.7 1.6-1.6 0-.9-.7-1.6-1.6-1.6H1.6c-.9 0-1.6.7-1.6 1.6 0 .9.7 1.6 1.6 1.6zm0 12h39.2c.9 0 1.6-.7 1.6-1.6 0-.9-.7-1.6-1.6-1.6H1.6c-.9 0-1.6.7-1.6 1.6 0 .9.7 1.6 1.6 1.6zm0 0"></path>
		</symbol>

</svg>
