<?xml version="1.0" encoding="utf-8"?>
<!-- Generator: Adobe Illustrator 21.0.0, SVG Export Plug-In . SVG Version: 6.00 Build 0)  -->
<svg version="1.1" id="Layer_1" xmlns="http://www.w3.org/2000/svg" xmlns:xlink="http://www.w3.org/1999/xlink" x="0px" y="0px"
	 viewBox="0 0 396 190" style="enable-background:new 0 0 396 190;" xml:space="preserve">
<style type="text/css">
	.st0{fill:#FFFFFF;stroke:#FFFFFF;stroke-miterlimit:10;}
	.st1{display:none;stroke:#FFFFFF;}
	.st2{fill:#FFFFFF;stroke:#FFFFFF;}
	.st3{fill:#2996CC;}
</style>
<g>
	<path class="st0" d="M79.3,32.7H55.6v140.8H42.1V32.7H18.2v-12h61V32.7z"/>
	<path class="st0" d="M226.1,162.6c0,3.2-1,5.8-3,7.8c-2,2-4.6,3-7.8,3h-38.5c-3.2,0-5.8-1-7.9-3c-2.1-2-3.1-4.6-3.1-7.8v-38.8h13.6
		v37.6h33V125l-42.2-51c-2.9-3.5-4.4-7.4-4.4-11.6v-31c0-3.2,1-5.8,3.1-7.8c2.1-2,4.7-3,7.9-3h38.5c3.2,0,5.8,1,7.8,3
		c2,2,3,4.6,3,7.8V67h-13.6V32.7h-33v32.2l42.4,51c2.8,3.4,4.2,7.2,4.2,11.4V162.6z"/>
	<path class="st2" d="M299,173.5h-48.8V20.6h13.6v140.8H299V173.5z"/>
	<path class="st2" d="M379.2,173.5h-13.5l-5.4-34h-30.4l-5.4,34h-13.1v-0.4l27.2-152.8h13.4L379.2,173.5z M358.6,127.5l-13.4-82.8
		l-13.5,82.8H358.6z"/>
</g>
<rect x="95.1" y="20.6" class="st3" width="49.7" height="12"/>
<rect x="95.4" y="90.1" class="st3" width="49.7" height="12"/>
<rect x="95.2" y="161.6" class="st3" width="49.7" height="12"/>
</svg>
