<?xml version="1.0" encoding="utf-8"?>
<!-- Generator: Adobe Illustrator 22.0.0, SVG Export Plug-In . SVG Version: 6.00 Build 0)  -->
<svg version="1.1" id="Слой_1" xmlns="http://www.w3.org/2000/svg" xmlns:xlink="http://www.w3.org/1999/xlink" x="0px" y="0px"
	 viewBox="0 0 387.8 375.9" style="enable-background:new 0 0 387.8 375.9;" xml:space="preserve">
<style type="text/css">
	.st0{clip-path:url(#SVGID_2_);fill:#9E9E9E;}
</style>
<g>
	<g>
		<defs>
			<rect id="SVGID_1_" x="-2" width="389.8" height="373.9"/>
		</defs>
		<clipPath id="SVGID_2_">
			<use xlink:href="#SVGID_1_"  style="overflow:visible;"/>
		</clipPath>
		<path class="st0" d="M387.2,141.4c-1.3-3.9-4.6-6.7-8.7-7.4l-121.6-17.3l-54.7-110c-1.8-3.7-5.6-6-9.7-6c-4.1,0-7.8,2.3-9.7,6.1
			l-54,110.3L7.2,135.3c-4.1,0.6-7.4,3.4-8.7,7.4c-1.3,3.9-0.2,8.2,2.8,11l88.2,85.5L69.2,360.3c-0.7,4.1,1,8.2,4.3,10.6
			c1.8,1.4,4.1,2.1,6.3,2.1c1.8,0,3.4-0.4,5-1.3l108.6-57.5L302.3,371c1.6,0.8,3.3,1.2,5,1.2c5.9,0,10.8-4.9,10.8-10.8
			c0-0.9-0.1-1.7-0.3-2.5l-21-120.4l87.7-86C387.5,149.7,388.5,145.4,387.2,141.4L387.2,141.4z M277.6,227.1c-2.6,2.5-3.7,6.1-3,9.6
			l18.3,105l-94.6-49.4c-3.1-1.7-6.9-1.6-10.1,0L94,342.3l17.7-105.2c0.6-3.5-0.6-7-3.1-9.5l-76.5-74.2l105.5-15.7
			c3.5-0.6,6.6-2.7,8.1-5.9L192.6,36l47.5,95.5c1.6,3.2,4.6,5.4,8.2,5.9l105.6,15L277.6,227.1z M277.6,227.1"/>
	</g>
</g>
</svg>
